<mxfile host="app.diagrams.net" agent="Mozilla/5.0 (Windows NT 10.0; Win64; x64) AppleWebKit/537.36 (KHTML, like Gecko) Chrome/134.0.0.0 Safari/537.36" version="26.1.0">
  <diagram name="Page-1" id="zgjJQIXZQNN-yMdNNROe">
    <mxGraphModel dx="794" dy="454" grid="1" gridSize="10" guides="1" tooltips="1" connect="1" arrows="1" fold="1" page="1" pageScale="1" pageWidth="1100" pageHeight="850" math="0" shadow="0">
      <root>
        <mxCell id="0" />
        <mxCell id="1" parent="0" />
        <mxCell id="J3S1IeGs4ny68dF_lAir-1" value="Start" style="strokeWidth=2;html=1;shape=mxgraph.flowchart.start_1;whiteSpace=wrap;" vertex="1" parent="1">
          <mxGeometry x="460" y="80" width="90" height="40" as="geometry" />
        </mxCell>
        <mxCell id="J3S1IeGs4ny68dF_lAir-2" value="Login page" style="rounded=1;whiteSpace=wrap;html=1;" vertex="1" parent="1">
          <mxGeometry x="460" y="170" width="95" height="30" as="geometry" />
        </mxCell>
        <mxCell id="J3S1IeGs4ny68dF_lAir-5" value="Have an account?" style="html=1;whiteSpace=wrap;aspect=fixed;shape=isoRectangle;" vertex="1" parent="1">
          <mxGeometry x="436.66" y="250" width="136.67" height="82" as="geometry" />
        </mxCell>
        <mxCell id="J3S1IeGs4ny68dF_lAir-11" value="" style="endArrow=classic;html=1;rounded=0;" edge="1" parent="1">
          <mxGeometry width="50" height="50" relative="1" as="geometry">
            <mxPoint x="505" y="120" as="sourcePoint" />
            <mxPoint x="504.5" y="170" as="targetPoint" />
          </mxGeometry>
        </mxCell>
        <mxCell id="J3S1IeGs4ny68dF_lAir-15" value="" style="endArrow=classic;html=1;rounded=0;" edge="1" parent="1">
          <mxGeometry width="50" height="50" relative="1" as="geometry">
            <mxPoint x="436.65999999999997" y="290" as="sourcePoint" />
            <mxPoint x="350" y="290" as="targetPoint" />
          </mxGeometry>
        </mxCell>
        <mxCell id="J3S1IeGs4ny68dF_lAir-16" value="" style="endArrow=classic;html=1;rounded=0;" edge="1" parent="1">
          <mxGeometry width="50" height="50" relative="1" as="geometry">
            <mxPoint x="505" y="200" as="sourcePoint" />
            <mxPoint x="505" y="250" as="targetPoint" />
          </mxGeometry>
        </mxCell>
        <mxCell id="J3S1IeGs4ny68dF_lAir-18" value="No" style="text;html=1;align=center;verticalAlign=middle;resizable=0;points=[];autosize=1;strokeColor=none;fillColor=none;" vertex="1" parent="1">
          <mxGeometry x="370" y="268" width="40" height="30" as="geometry" />
        </mxCell>
        <mxCell id="J3S1IeGs4ny68dF_lAir-19" value="" style="endArrow=classic;html=1;rounded=0;" edge="1" parent="1">
          <mxGeometry width="50" height="50" relative="1" as="geometry">
            <mxPoint x="570" y="290.5" as="sourcePoint" />
            <mxPoint x="660" y="290.5" as="targetPoint" />
          </mxGeometry>
        </mxCell>
        <mxCell id="J3S1IeGs4ny68dF_lAir-20" value="Yes" style="text;html=1;align=center;verticalAlign=middle;resizable=0;points=[];autosize=1;strokeColor=none;fillColor=none;" vertex="1" parent="1">
          <mxGeometry x="590" y="268" width="40" height="30" as="geometry" />
        </mxCell>
        <mxCell id="J3S1IeGs4ny68dF_lAir-23" value="" style="endArrow=none;html=1;rounded=0;" edge="1" parent="1">
          <mxGeometry width="50" height="50" relative="1" as="geometry">
            <mxPoint x="280" y="306" as="sourcePoint" />
            <mxPoint x="280" y="370" as="targetPoint" />
          </mxGeometry>
        </mxCell>
        <mxCell id="J3S1IeGs4ny68dF_lAir-24" value="" style="endArrow=none;html=1;rounded=0;" edge="1" parent="1">
          <mxGeometry width="50" height="50" relative="1" as="geometry">
            <mxPoint x="680" y="370" as="sourcePoint" />
            <mxPoint x="280" y="370" as="targetPoint" />
          </mxGeometry>
        </mxCell>
        <mxCell id="J3S1IeGs4ny68dF_lAir-25" value="" style="endArrow=classic;html=1;rounded=0;" edge="1" parent="1">
          <mxGeometry width="50" height="50" relative="1" as="geometry">
            <mxPoint x="680" y="370" as="sourcePoint" />
            <mxPoint x="680" y="306" as="targetPoint" />
          </mxGeometry>
        </mxCell>
        <mxCell id="J3S1IeGs4ny68dF_lAir-26" value="Is Admin?" style="html=1;whiteSpace=wrap;aspect=fixed;shape=isoRectangle;" vertex="1" parent="1">
          <mxGeometry x="660" y="390" width="136.67" height="82" as="geometry" />
        </mxCell>
        <mxCell id="J3S1IeGs4ny68dF_lAir-29" value="" style="endArrow=classic;html=1;rounded=0;entryX=0.454;entryY=0.081;entryDx=0;entryDy=0;entryPerimeter=0;" edge="1" parent="1" target="J3S1IeGs4ny68dF_lAir-26">
          <mxGeometry width="50" height="50" relative="1" as="geometry">
            <mxPoint x="719.9999999999999" y="306" as="sourcePoint" />
            <mxPoint x="720" y="390" as="targetPoint" />
          </mxGeometry>
        </mxCell>
        <mxCell id="J3S1IeGs4ny68dF_lAir-32" value="" style="endArrow=classic;html=1;rounded=0;" edge="1" parent="1">
          <mxGeometry width="50" height="50" relative="1" as="geometry">
            <mxPoint x="790" y="430.5" as="sourcePoint" />
            <mxPoint x="870" y="430.5" as="targetPoint" />
          </mxGeometry>
        </mxCell>
        <mxCell id="J3S1IeGs4ny68dF_lAir-36" value="Login" style="rounded=1;whiteSpace=wrap;html=1;" vertex="1" parent="1">
          <mxGeometry x="660" y="276" width="95" height="30" as="geometry" />
        </mxCell>
        <mxCell id="J3S1IeGs4ny68dF_lAir-37" value="Register" style="rounded=1;whiteSpace=wrap;html=1;" vertex="1" parent="1">
          <mxGeometry x="250" y="276" width="100" height="30" as="geometry" />
        </mxCell>
        <mxCell id="J3S1IeGs4ny68dF_lAir-40" value="Admin Dashboard" style="rounded=1;whiteSpace=wrap;html=1;" vertex="1" parent="1">
          <mxGeometry x="870" y="416" width="95" height="30" as="geometry" />
        </mxCell>
        <mxCell id="J3S1IeGs4ny68dF_lAir-41" value="Search courses" style="whiteSpace=wrap;html=1;rounded=1;" vertex="1" parent="1">
          <mxGeometry x="312.5" y="589.75" width="97.5" height="29" as="geometry" />
        </mxCell>
        <mxCell id="J3S1IeGs4ny68dF_lAir-44" value="Purchase Courses" style="whiteSpace=wrap;html=1;rounded=1;" vertex="1" parent="1">
          <mxGeometry x="312.5" y="670" width="97.5" height="29" as="geometry" />
        </mxCell>
        <mxCell id="J3S1IeGs4ny68dF_lAir-45" value="Manage Profile" style="whiteSpace=wrap;html=1;rounded=1;" vertex="1" parent="1">
          <mxGeometry x="312.5" y="740" width="97.5" height="29" as="geometry" />
        </mxCell>
        <mxCell id="J3S1IeGs4ny68dF_lAir-60" style="edgeStyle=orthogonalEdgeStyle;rounded=0;orthogonalLoop=1;jettySize=auto;html=1;entryX=0.5;entryY=0;entryDx=0;entryDy=0;" edge="1" parent="1" source="J3S1IeGs4ny68dF_lAir-48" target="J3S1IeGs4ny68dF_lAir-53">
          <mxGeometry relative="1" as="geometry" />
        </mxCell>
        <mxCell id="J3S1IeGs4ny68dF_lAir-48" value="Is Instructor?" style="html=1;whiteSpace=wrap;aspect=fixed;shape=isoRectangle;" vertex="1" parent="1">
          <mxGeometry x="400" y="390" width="136.67" height="82" as="geometry" />
        </mxCell>
        <mxCell id="J3S1IeGs4ny68dF_lAir-50" value="" style="endArrow=classic;html=1;rounded=0;entryX=1.005;entryY=0.496;entryDx=0;entryDy=0;entryPerimeter=0;" edge="1" parent="1" target="J3S1IeGs4ny68dF_lAir-48">
          <mxGeometry width="50" height="50" relative="1" as="geometry">
            <mxPoint x="659.9999999999999" y="430.5" as="sourcePoint" />
            <mxPoint x="540" y="431" as="targetPoint" />
          </mxGeometry>
        </mxCell>
        <mxCell id="J3S1IeGs4ny68dF_lAir-51" value="No" style="text;html=1;align=center;verticalAlign=middle;resizable=0;points=[];autosize=1;strokeColor=none;fillColor=none;" vertex="1" parent="1">
          <mxGeometry x="580" y="408" width="40" height="30" as="geometry" />
        </mxCell>
        <mxCell id="J3S1IeGs4ny68dF_lAir-52" value="Yes" style="text;html=1;align=center;verticalAlign=middle;resizable=0;points=[];autosize=1;strokeColor=none;fillColor=none;" vertex="1" parent="1">
          <mxGeometry x="790" y="408" width="40" height="30" as="geometry" />
        </mxCell>
        <mxCell id="J3S1IeGs4ny68dF_lAir-53" value="Instructor Dashboard" style="rounded=1;whiteSpace=wrap;html=1;" vertex="1" parent="1">
          <mxGeometry x="420.84" y="511" width="95" height="30" as="geometry" />
        </mxCell>
        <mxCell id="J3S1IeGs4ny68dF_lAir-55" value="Stop" style="strokeWidth=2;html=1;shape=mxgraph.flowchart.start_1;whiteSpace=wrap;" vertex="1" parent="1">
          <mxGeometry x="573.33" y="810" width="100" height="50" as="geometry" />
        </mxCell>
        <mxCell id="J3S1IeGs4ny68dF_lAir-56" value="" style="line;strokeWidth=2;html=1;rotation=90;" vertex="1" parent="1">
          <mxGeometry x="371.25" y="628.75" width="177.5" height="10" as="geometry" />
        </mxCell>
        <mxCell id="J3S1IeGs4ny68dF_lAir-59" value="" style="endArrow=classic;html=1;rounded=0;" edge="1" parent="1">
          <mxGeometry width="50" height="50" relative="1" as="geometry">
            <mxPoint x="460" y="594" as="sourcePoint" />
            <mxPoint x="547.5" y="594" as="targetPoint" />
          </mxGeometry>
        </mxCell>
        <mxCell id="J3S1IeGs4ny68dF_lAir-61" value="Manage Courses" style="rounded=1;whiteSpace=wrap;html=1;" vertex="1" parent="1">
          <mxGeometry x="550" y="579.5" width="95" height="30" as="geometry" />
        </mxCell>
        <mxCell id="J3S1IeGs4ny68dF_lAir-62" value="" style="endArrow=classic;html=1;rounded=0;" edge="1" parent="1">
          <mxGeometry width="50" height="50" relative="1" as="geometry">
            <mxPoint x="461.25" y="640" as="sourcePoint" />
            <mxPoint x="548.75" y="640" as="targetPoint" />
          </mxGeometry>
        </mxCell>
        <mxCell id="J3S1IeGs4ny68dF_lAir-63" value="Track Student&amp;nbsp;" style="rounded=1;whiteSpace=wrap;html=1;" vertex="1" parent="1">
          <mxGeometry x="550" y="630" width="95" height="30" as="geometry" />
        </mxCell>
        <mxCell id="J3S1IeGs4ny68dF_lAir-70" value="" style="endArrow=classic;html=1;rounded=0;entryX=0;entryY=0.5;entryDx=0;entryDy=0;" edge="1" parent="1" target="J3S1IeGs4ny68dF_lAir-41">
          <mxGeometry width="50" height="50" relative="1" as="geometry">
            <mxPoint x="260" y="604.25" as="sourcePoint" />
            <mxPoint x="310" y="604" as="targetPoint" />
          </mxGeometry>
        </mxCell>
        <mxCell id="J3S1IeGs4ny68dF_lAir-75" value="yes" style="text;html=1;align=center;verticalAlign=middle;resizable=0;points=[];autosize=1;strokeColor=none;fillColor=none;" vertex="1" parent="1">
          <mxGeometry x="460" y="478" width="40" height="30" as="geometry" />
        </mxCell>
        <mxCell id="J3S1IeGs4ny68dF_lAir-76" value="" style="endArrow=classic;html=1;rounded=0;entryX=1;entryY=0.5;entryDx=0;entryDy=0;" edge="1" parent="1" target="J3S1IeGs4ny68dF_lAir-77">
          <mxGeometry width="50" height="50" relative="1" as="geometry">
            <mxPoint x="400" y="430.5" as="sourcePoint" />
            <mxPoint x="330" y="430.5" as="targetPoint" />
          </mxGeometry>
        </mxCell>
        <mxCell id="J3S1IeGs4ny68dF_lAir-77" value="User" style="rounded=1;whiteSpace=wrap;html=1;" vertex="1" parent="1">
          <mxGeometry x="230" y="416" width="80" height="30" as="geometry" />
        </mxCell>
        <mxCell id="J3S1IeGs4ny68dF_lAir-78" style="edgeStyle=orthogonalEdgeStyle;rounded=0;orthogonalLoop=1;jettySize=auto;html=1;exitX=0.5;exitY=1;exitDx=0;exitDy=0;" edge="1" parent="1" source="J3S1IeGs4ny68dF_lAir-77" target="J3S1IeGs4ny68dF_lAir-77">
          <mxGeometry relative="1" as="geometry" />
        </mxCell>
        <mxCell id="J3S1IeGs4ny68dF_lAir-80" value="" style="endArrow=none;html=1;rounded=0;" edge="1" parent="1">
          <mxGeometry width="50" height="50" relative="1" as="geometry">
            <mxPoint x="260" y="446" as="sourcePoint" />
            <mxPoint x="260" y="850" as="targetPoint" />
          </mxGeometry>
        </mxCell>
        <mxCell id="J3S1IeGs4ny68dF_lAir-81" value="No" style="text;html=1;align=center;verticalAlign=middle;resizable=0;points=[];autosize=1;strokeColor=none;fillColor=none;" vertex="1" parent="1">
          <mxGeometry x="330" y="398" width="40" height="30" as="geometry" />
        </mxCell>
        <mxCell id="J3S1IeGs4ny68dF_lAir-82" value="" style="endArrow=classic;html=1;rounded=0;entryX=0;entryY=0.5;entryDx=0;entryDy=0;" edge="1" parent="1">
          <mxGeometry width="50" height="50" relative="1" as="geometry">
            <mxPoint x="259.5" y="684.25" as="sourcePoint" />
            <mxPoint x="312.5" y="684" as="targetPoint" />
          </mxGeometry>
        </mxCell>
        <mxCell id="J3S1IeGs4ny68dF_lAir-83" value="" style="endArrow=classic;html=1;rounded=0;entryX=0;entryY=0.5;entryDx=0;entryDy=0;" edge="1" parent="1">
          <mxGeometry width="50" height="50" relative="1" as="geometry">
            <mxPoint x="259.5" y="754.25" as="sourcePoint" />
            <mxPoint x="312.5" y="754" as="targetPoint" />
          </mxGeometry>
        </mxCell>
        <mxCell id="J3S1IeGs4ny68dF_lAir-84" value="" style="endArrow=none;html=1;rounded=0;" edge="1" parent="1">
          <mxGeometry width="50" height="50" relative="1" as="geometry">
            <mxPoint x="460" y="720" as="sourcePoint" />
            <mxPoint x="630" y="720" as="targetPoint" />
          </mxGeometry>
        </mxCell>
        <mxCell id="J3S1IeGs4ny68dF_lAir-85" value="" style="endArrow=classic;html=1;rounded=0;" edge="1" parent="1">
          <mxGeometry width="50" height="50" relative="1" as="geometry">
            <mxPoint x="629.5" y="720" as="sourcePoint" />
            <mxPoint x="630" y="808" as="targetPoint" />
          </mxGeometry>
        </mxCell>
        <mxCell id="J3S1IeGs4ny68dF_lAir-86" value="" style="endArrow=classic;html=1;rounded=0;entryX=0.033;entryY=0.693;entryDx=0;entryDy=0;entryPerimeter=0;" edge="1" parent="1" target="J3S1IeGs4ny68dF_lAir-55">
          <mxGeometry width="50" height="50" relative="1" as="geometry">
            <mxPoint x="260" y="849" as="sourcePoint" />
            <mxPoint x="350" y="850" as="targetPoint" />
          </mxGeometry>
        </mxCell>
        <mxCell id="J3S1IeGs4ny68dF_lAir-91" value="" style="endArrow=none;html=1;rounded=0;" edge="1" parent="1">
          <mxGeometry width="50" height="50" relative="1" as="geometry">
            <mxPoint x="930" y="446" as="sourcePoint" />
            <mxPoint x="930" y="841.3333740234375" as="targetPoint" />
          </mxGeometry>
        </mxCell>
        <mxCell id="J3S1IeGs4ny68dF_lAir-92" value="" style="endArrow=classic;html=1;rounded=0;entryX=0.987;entryY=0.64;entryDx=0;entryDy=0;entryPerimeter=0;" edge="1" parent="1" target="J3S1IeGs4ny68dF_lAir-55">
          <mxGeometry width="50" height="50" relative="1" as="geometry">
            <mxPoint x="930" y="840" as="sourcePoint" />
            <mxPoint x="850" y="840.6666259765625" as="targetPoint" />
          </mxGeometry>
        </mxCell>
        <mxCell id="J3S1IeGs4ny68dF_lAir-94" value="Manage User and Instructor" style="rounded=1;whiteSpace=wrap;html=1;" vertex="1" parent="1">
          <mxGeometry x="762.5" y="530" width="95" height="30" as="geometry" />
        </mxCell>
        <mxCell id="J3S1IeGs4ny68dF_lAir-95" value="Manage All Courses" style="rounded=1;whiteSpace=wrap;html=1;" vertex="1" parent="1">
          <mxGeometry x="762.5" y="589.25" width="95" height="30" as="geometry" />
        </mxCell>
        <mxCell id="J3S1IeGs4ny68dF_lAir-96" value="" style="endArrow=classic;html=1;rounded=0;" edge="1" parent="1">
          <mxGeometry width="50" height="50" relative="1" as="geometry">
            <mxPoint x="930.83" y="544.5" as="sourcePoint" />
            <mxPoint x="857.5" y="544.5" as="targetPoint" />
          </mxGeometry>
        </mxCell>
        <mxCell id="J3S1IeGs4ny68dF_lAir-98" value="" style="endArrow=classic;html=1;rounded=0;" edge="1" parent="1">
          <mxGeometry width="50" height="50" relative="1" as="geometry">
            <mxPoint x="930.83" y="603.75" as="sourcePoint" />
            <mxPoint x="857.5" y="603.75" as="targetPoint" />
          </mxGeometry>
        </mxCell>
      </root>
    </mxGraphModel>
  </diagram>
</mxfile>
